# xmcd
#
# Track frame offsets: 
#        150
#        22898
#        45565
#        70650
#        91650
#        115200
#        129948
#        152910
#        172753
#        186403
#
# Disc length: 2733 seconds
#
# Revision: 2
# Processed by: cddbd v1.5.2PL0 Copyright (c) Steve Scherf et al.
# Submitted via: ExactAudioCopy v1.0b3
#
DISCID=710aab0a
DTITLE=Son Tuyen - Goi Giac Mo Xua
DYEAR=1990
DGENRE=
TTITLE0=Trung Vuong khung cua mua thu
TTITLE1=Goi giac mo xua
TTITLE2=Greatest love of all
TTITLE3=I don't want to lose you tonight
TTITLE4=Cuoc tinh xua
TTITLE5=Rong choi cuoi troi quen lang
TTITLE6=Giot nuoc mat nga
TTITLE7=Jumping my car
TTITLE8=Khi anh di
TTITLE9=Heaven can't wait
EXTD=
EXTT0=
EXTT1=
EXTT2=
EXTT3=
EXTT4=
EXTT5=
EXTT6=
EXTT7=
EXTT8=
EXTT9=
PLAYORDER=
